<svg xmlns="http://www.w3.org/2000/svg" width="394.252" height="267.519" viewBox="0 0 394.252 267.519"><defs><style>.a{fill:#707070;}.b{fill:#65af05;}.c{fill:#fff;}.d,.g,.k{fill:none;}.d,.g{stroke:#707070;}.d{stroke-linecap:round;stroke-width:4px;}.e,.f{fill:#780a6e;}.f{stroke:#780a6e;}.g{stroke-width:0.5px;}.h,.i,.j{stroke:none;}.i{fill:#65af05;}.j{fill:#780a6e;}</style></defs><g transform="translate(-124.748 -256.344)"><path class="a" d="M5.59,0H8.606V-14.456H13.52V-17H.676v2.548H5.59ZM22.282.312c4.446,0,7.514-3.38,7.514-8.892,0-5.486-3.068-8.736-7.514-8.736-4.42,0-7.488,3.25-7.488,8.736C14.794-3.068,17.862.312,22.282.312Zm0-2.626c-2.678,0-4.394-2.444-4.394-6.266,0-3.8,1.716-6.11,4.394-6.11s4.394,2.314,4.394,6.11C26.676-4.758,24.96-2.314,22.282-2.314ZM35.958,0h3.016V-14.456h4.914V-17H31.044v2.548h4.914ZM49.166-9.048c.546-1.794,1.04-3.718,1.508-5.616h.1c.494,1.872.988,3.822,1.534,5.616l.6,2.08H48.568ZM43.472,0H46.54l1.326-4.6h5.72L54.912,0h3.172L52.546-17H49.01ZM60.19,0H70.278V-2.548H63.206V-17H60.19ZM2.158,33H5.174V26.76H7.618c3.666,0,6.474-1.742,6.474-5.512C14.092,17.3,11.284,16,7.514,16H2.158Zm3.016-8.658V18.414H7.28c2.522,0,3.848.7,3.848,2.834,0,2.08-1.222,3.094-3.744,3.094Zm14.3-.39c.546-1.794,1.04-3.718,1.508-5.616h.1c.494,1.872.988,3.822,1.534,5.616l.6,2.08H18.876ZM13.78,33h3.068l1.326-4.6h5.72L25.22,33h3.172L22.854,16H19.318Zm18.486,0h3.016V18.544H40.2V16H27.352v2.548h4.914ZM43.03,33h3.016V16H43.03Zm7.332,0h10.5V30.452H53.378V25.434h6.11V22.886h-6.11V18.544h7.228V16H50.362ZM64.35,33h2.886V25.564c0-1.9-.26-3.952-.39-5.746h.1l1.742,3.614L74,33H77.09V16H74.2V23.38c0,1.9.26,4.056.39,5.8h-.1l-1.742-3.614L67.444,16H64.35Zm20.488,0h3.016V18.544h4.914V16H79.924v2.548h4.914ZM100.8,33h3.016V26.344h2.6L110.084,33h3.38l-4.056-7.1a4.759,4.759,0,0,0,3.38-4.862c0-3.8-2.7-5.044-6.24-5.044H100.8Zm3.016-9.048V18.414h2.418c2.314,0,3.588.676,3.588,2.626,0,1.924-1.274,2.912-3.588,2.912Zm16.978,9.36c3.822,0,6.11-2.288,6.11-5.044,0-2.47-1.43-3.744-3.432-4.6L121.16,22.7c-1.4-.572-2.7-1.066-2.7-2.392,0-1.248,1.066-2,2.678-2a5.541,5.541,0,0,1,3.692,1.456l1.534-1.924a7.506,7.506,0,0,0-5.226-2.158c-3.328,0-5.72,2.08-5.72,4.784,0,2.5,1.768,3.822,3.432,4.524l2.34,1.014c1.534.65,2.626,1.092,2.626,2.5,0,1.326-1.04,2.184-2.964,2.184a6.762,6.762,0,0,1-4.42-1.924l-1.768,2.054A8.808,8.808,0,0,0,120.8,33.312Zm13.754,0c3.822,0,6.11-2.288,6.11-5.044,0-2.47-1.43-3.744-3.432-4.6l-2.314-.962c-1.4-.572-2.7-1.066-2.7-2.392,0-1.248,1.066-2,2.678-2a5.541,5.541,0,0,1,3.692,1.456l1.534-1.924a7.506,7.506,0,0,0-5.226-2.158c-3.328,0-5.72,2.08-5.72,4.784,0,2.5,1.768,3.822,3.432,4.524l2.34,1.014c1.534.65,2.626,1.092,2.626,2.5,0,1.326-1.04,2.184-2.964,2.184a6.762,6.762,0,0,1-4.42-1.924l-1.768,2.054A8.808,8.808,0,0,0,134.55,33.312Z" transform="translate(125 456)"/><g transform="translate(-18.012 -20.863)"><g class="b" transform="translate(396 435)"><path class="h" d="M 54.86266708374023 109.225341796875 C 47.52353668212891 109.225341796875 40.40419387817383 107.7880706787109 33.70241165161133 104.9534530639648 C 30.48130989074707 103.5910568237305 27.37452507019043 101.9047317504883 24.46832466125488 99.94135284423828 C 21.58962440490723 97.99654388427734 18.88259506225586 95.76303100585938 16.42245292663574 93.30288696289062 C 13.96230983734131 90.84274291992188 11.72881031036377 88.13571166992188 9.783995628356934 85.25701141357422 C 7.820610046386719 82.350830078125 6.134295463562012 79.24402618408203 4.771881580352783 76.02292633056641 C 1.937267065048218 69.32114410400391 0.4999956488609314 62.20181274414062 0.4999956488609314 54.8626708984375 C 0.4999956488609314 47.52354049682617 1.937267065048218 40.40419769287109 4.771881580352783 33.70241546630859 C 6.134295463562012 30.48131370544434 7.820610046386719 27.3745288848877 9.783995628356934 24.46832847595215 C 11.72881031036377 21.58962821960449 13.96230983734131 18.88259887695312 16.42245292663574 16.42245674133301 C 18.88259506225586 13.96231365203857 21.58962440490723 11.72881412506104 24.46832466125488 9.783999443054199 C 27.37452507019043 7.820613861083984 30.48130989074707 6.134299278259277 33.70241165161133 4.771885395050049 C 40.40419387817383 1.937270879745483 47.52353668212891 0.499999463558197 54.86266708374023 0.499999463558197 C 62.20180892944336 0.499999463558197 69.32113647460938 1.937270879745483 76.02292633056641 4.771885395050049 C 79.24402618408203 6.134299278259277 82.35082244873047 7.820613861083984 85.25701141357422 9.783999443054199 C 88.13571166992188 11.72881412506104 90.84273529052734 13.96231365203857 93.30287933349609 16.42245674133301 C 95.76302337646484 18.88259887695312 97.99653625488281 21.58962821960449 99.94135284423828 24.46832847595215 C 101.9047241210938 27.3745288848877 103.5910491943359 30.48131370544434 104.9534530639648 33.70241546630859 C 107.7880706787109 40.40419769287109 109.225341796875 47.52354049682617 109.225341796875 54.8626708984375 C 109.225341796875 62.20181274414062 107.7880706787109 69.32114410400391 104.9534530639648 76.02292633056641 C 103.5910491943359 79.24402618408203 101.9047241210938 82.350830078125 99.94135284423828 85.25701141357422 C 97.99653625488281 88.13571166992188 95.76303863525391 90.84274291992188 93.30287933349609 93.30288696289062 C 90.84273529052734 95.76303863525391 88.13571166992188 97.99654388427734 85.25701141357422 99.94135284423828 C 82.35082244873047 101.9047317504883 79.24402618408203 103.5910568237305 76.02292633056641 104.9534530639648 C 69.32113647460938 107.7880706787109 62.20180892944336 109.225341796875 54.86266708374023 109.225341796875 Z"/><path class="i" d="M 54.86266708374023 1 C 47.5908088684082 1 40.53701019287109 2.423988342285156 33.89719390869141 5.232383728027344 C 30.70582580566406 6.58221435546875 27.62767028808594 8.252998352050781 24.74823760986328 10.19830322265625 C 21.89589691162109 12.12531280517578 19.21365356445312 14.33837127685547 16.77600860595703 16.77601623535156 C 14.33836364746094 19.21365356445312 12.12531280517578 21.89589691162109 10.19829559326172 24.74824523925781 C 8.252998352050781 27.62767028808594 6.582206726074219 30.70582580566406 5.232383728027344 33.89720153808594 C 2.423980712890625 40.53701019287109 0.9999923706054688 47.59081268310547 0.9999923706054688 54.8626708984375 C 0.9999923706054688 62.13452911376953 2.423980712890625 69.18832397460938 5.232383728027344 75.82814025878906 C 6.582206726074219 79.01951599121094 8.252998352050781 82.09767150878906 10.19829559326172 84.97709655761719 C 12.12531280517578 87.82944488525391 14.33836364746094 90.51168823242188 16.77600860595703 92.94932556152344 C 19.21365356445312 95.38697052001953 21.89589691162109 97.60002899169922 24.74823760986328 99.52703857421875 C 27.62767028808594 101.4723434448242 30.70582580566406 103.1431274414062 33.89719390869141 104.4929580688477 C 40.53701019287109 107.3013534545898 47.5908088684082 108.725341796875 54.86266708374023 108.725341796875 C 62.13452529907227 108.725341796875 69.18833923339844 107.3013534545898 75.82815551757812 104.4929580688477 C 79.01950836181641 103.1431274414062 82.09767150878906 101.4723434448242 84.97711181640625 99.52703857421875 C 87.82943725585938 97.60002899169922 90.51168060302734 95.38697052001953 92.9493408203125 92.94932556152344 C 95.38697814941406 90.51168823242188 97.60003662109375 87.82944488525391 99.52703857421875 84.97709655761719 C 101.4723358154297 82.09767150878906 103.1431274414062 79.01951599121094 104.4929504394531 75.82814025878906 C 107.3013534545898 69.18832397460938 108.725341796875 62.13452911376953 108.725341796875 54.8626708984375 C 108.725341796875 47.59081268310547 107.3013534545898 40.53701019287109 104.4929504394531 33.89720153808594 C 103.1431274414062 30.70582580566406 101.4723358154297 27.62767028808594 99.52703857421875 24.74824523925781 C 97.60003662109375 21.89589691162109 95.38697814941406 19.21365356445312 92.9493408203125 16.77601623535156 C 90.51168060302734 14.33837127685547 87.82943725585938 12.12531280517578 84.97711181640625 10.19830322265625 C 82.09767150878906 8.252998352050781 79.01950836181641 6.58221435546875 75.82815551757812 5.232383728027344 C 69.18833923339844 2.423988342285156 62.13452529907227 1 54.86266708374023 1 M 54.86266708374023 0 C 85.16249847412109 0 109.725341796875 24.56285858154297 109.725341796875 54.8626708984375 C 109.725341796875 85.16248321533203 85.16249847412109 109.725341796875 54.86266708374023 109.725341796875 C 24.56285095214844 109.725341796875 -7.62939453125e-06 85.16248321533203 -7.62939453125e-06 54.8626708984375 C -7.62939453125e-06 24.56285858154297 24.56285095214844 0 54.86266708374023 0 Z"/></g><path class="c" d="M-1.369,1C8.757,1,17.14-4.648,17.14-14.276c0-6.972-4.731-11.454-10.956-13.114v-.332C11.911-29.963,15.4-33.947,15.4-39.84c0-8.964-6.972-13.944-17.1-13.944-6.308,0-11.371,2.656-15.853,6.64l4.9,5.893c3.237-2.988,6.474-4.98,10.624-4.98,4.814,0,7.8,2.656,7.8,7.055,0,4.9-3.4,8.466-13.778,8.466v6.972c12.035,0,15.521,3.486,15.521,8.964,0,4.98-3.984,7.968-9.711,7.968-5.312,0-9.379-2.573-12.533-5.81L-19.3-6.474C-15.562-2.324-9.918,1-1.369,1Z" transform="translate(452.45 519.11)"/></g><g transform="translate(304 463.027)"><line class="d" x2="41.988" transform="translate(0)"/><line class="d" x2="41.988" transform="translate(0 19.064)"/></g><g transform="translate(291.383 308)"><line class="d" x2="48" transform="translate(-0.383 24)"/><line class="d" y1="48" transform="translate(23.617)"/></g><path class="a" d="M21.772,16h1.856V7.1h3.024V5.536h-7.9V7.1h3.024Zm10.272.192c2.736,0,4.624-2.08,4.624-5.472,0-3.376-1.888-5.376-4.624-5.376-2.72,0-4.608,2-4.608,5.376C27.436,14.112,29.324,16.192,32.044,16.192Zm0-1.616c-1.648,0-2.7-1.5-2.7-3.856,0-2.336,1.056-3.76,2.7-3.76s2.7,1.424,2.7,3.76C34.748,13.072,33.692,14.576,32.044,14.576ZM40.46,16h1.856V7.1H45.34V5.536h-7.9V7.1H40.46Zm8.128-5.568c.336-1.1.64-2.288.928-3.456h.064c.3,1.152.608,2.352.944,3.456l.368,1.28H48.22ZM45.084,16h1.888l.816-2.832h3.52L52.124,16h1.952L50.668,5.536H48.492Zm10.288,0H61.58V14.432H57.228v-8.9H55.372Zm12.272,0H69.9l1.264-5.5c.176-.816.336-1.616.48-2.416h.064c.128.8.288,1.6.464,2.416l1.3,5.5h2.3l2-10.464H76l-.912,5.28c-.16,1.1-.336,2.224-.5,3.344h-.064c-.24-1.12-.464-2.256-.7-3.344l-1.28-5.28H70.924l-1.28,5.28c-.24,1.1-.464,2.24-.688,3.344h-.064c-.16-1.1-.336-2.224-.512-3.344l-.912-5.28h-1.9ZM79.4,16H81.26V11.9h1.6L85.116,16H87.2l-2.5-4.368A2.929,2.929,0,0,0,86.78,8.64c0-2.336-1.664-3.1-3.84-3.1H79.4Zm1.856-5.568V7.024h1.488c1.424,0,2.208.416,2.208,1.616,0,1.184-.784,1.792-2.208,1.792ZM88.876,16h1.856V5.536H88.876Zm7.568.192c2.352,0,3.76-1.408,3.76-3.1a2.928,2.928,0,0,0-2.112-2.832l-1.424-.592C95.8,9.312,95,9.008,95,8.192c0-.768.656-1.232,1.648-1.232a3.41,3.41,0,0,1,2.272.9l.944-1.184a4.619,4.619,0,0,0-3.216-1.328c-2.048,0-3.52,1.28-3.52,2.944a3.016,3.016,0,0,0,2.112,2.784l1.44.624c.944.4,1.616.672,1.616,1.536,0,.816-.64,1.344-1.824,1.344a4.161,4.161,0,0,1-2.72-1.184l-1.088,1.264A5.42,5.42,0,0,0,96.444,16.192ZM103.9,16h1.856V7.1h3.024V5.536h-7.9V7.1H103.9Zm12.88.192c2.352,0,3.76-1.408,3.76-3.1a2.928,2.928,0,0,0-2.112-2.832L117,9.664c-.864-.352-1.664-.656-1.664-1.472,0-.768.656-1.232,1.648-1.232a3.41,3.41,0,0,1,2.272.9l.944-1.184a4.619,4.619,0,0,0-3.216-1.328c-2.048,0-3.52,1.28-3.52,2.944a3.016,3.016,0,0,0,2.112,2.784l1.44.624c.944.4,1.616.672,1.616,1.536,0,.816-.64,1.344-1.824,1.344a4.161,4.161,0,0,1-2.72-1.184L113,14.656A5.42,5.42,0,0,0,116.78,16.192Zm9.84,0a4.219,4.219,0,0,0,3.3-1.52l-.992-1.168a2.981,2.981,0,0,1-2.24,1.072c-1.76,0-2.88-1.44-2.88-3.824,0-2.352,1.216-3.792,2.928-3.792a2.728,2.728,0,0,1,1.984.912l.992-1.2a4.154,4.154,0,0,0-3.024-1.328c-2.64,0-4.784,2.032-4.784,5.456C121.9,14.272,123.98,16.192,126.62,16.192Zm8.576,0c2.736,0,4.624-2.08,4.624-5.472,0-3.376-1.888-5.376-4.624-5.376-2.72,0-4.608,2-4.608,5.376C130.588,14.112,132.476,16.192,135.2,16.192Zm0-1.616c-1.648,0-2.7-1.5-2.7-3.856,0-2.336,1.056-3.76,2.7-3.76s2.7,1.424,2.7,3.76C137.9,13.072,136.844,14.576,135.2,14.576ZM141.916,16h1.856V11.9h1.6l2.256,4.1h2.08l-2.5-4.368a2.929,2.929,0,0,0,2.08-2.992c0-2.336-1.664-3.1-3.84-3.1h-3.536Zm1.856-5.568V7.024h1.488c1.424,0,2.208.416,2.208,1.616,0,1.184-.784,1.792-2.208,1.792ZM151.388,16h6.464V14.432h-4.608V11.344H157V9.776h-3.76V7.1h4.448V5.536h-6.3Z" transform="translate(106 251)"/><g transform="translate(145 279)"><g class="e"><path class="h" d="M 50 99.5 C 43.31732177734375 99.5 36.83480072021484 98.19129180908203 30.73251914978027 95.61025238037109 C 24.8381462097168 93.11714935302734 19.54437255859375 89.54794311523438 14.99821376800537 85.00178527832031 C 10.45205307006836 80.45562744140625 6.882853507995605 75.16184997558594 4.38974666595459 69.26747894287109 C 1.808706641197205 63.16519927978516 0.5 56.68267822265625 0.5 50 C 0.5 43.31732177734375 1.808706641197205 36.83480072021484 4.38974666595459 30.73251914978027 C 6.882853507995605 24.8381462097168 10.45205307006836 19.54437255859375 14.99821376800537 14.99821376800537 C 19.54437255859375 10.45205307006836 24.8381462097168 6.882853507995605 30.73251914978027 4.38974666595459 C 36.83480072021484 1.808706641197205 43.31732177734375 0.5 50 0.5 C 56.68267822265625 0.5 63.16519927978516 1.808706641197205 69.26747894287109 4.38974666595459 C 75.16184997558594 6.882853507995605 80.45562744140625 10.45205307006836 85.00178527832031 14.99821376800537 C 89.54794311523438 19.54437255859375 93.11714935302734 24.8381462097168 95.61025238037109 30.73251914978027 C 98.19129180908203 36.83480072021484 99.5 43.31732177734375 99.5 50 C 99.5 56.68267822265625 98.19129180908203 63.16519927978516 95.61025238037109 69.26747894287109 C 93.11714935302734 75.16184997558594 89.54794311523438 80.45562744140625 85.00178527832031 85.00178527832031 C 80.45562744140625 89.54794311523438 75.16184997558594 93.11714935302734 69.26747894287109 95.61025238037109 C 63.16519927978516 98.19129180908203 56.68267822265625 99.5 50 99.5 Z"/><path class="j" d="M 50 1 C 43.38460159301758 1 36.96761322021484 2.29541015625 30.92729187011719 4.850250244140625 C 25.09253692626953 7.318145751953125 19.85215759277344 10.85137176513672 15.35177612304688 15.35177612304688 C 10.85137176513672 19.85215759277344 7.318145751953125 25.09253692626953 4.850250244140625 30.92729187011719 C 2.29541015625 36.96761322021484 1 43.38460159301758 1 50 C 1 56.61539840698242 2.29541015625 63.03238677978516 4.850250244140625 69.07270812988281 C 7.318145751953125 74.907470703125 10.85137176513672 80.14784240722656 15.35177612304688 84.64822387695312 C 19.85215759277344 89.14862823486328 25.09253692626953 92.68185424804688 30.92729187011719 95.14974975585938 C 36.96761322021484 97.70458984375 43.38460159301758 99 50 99 C 56.61539840698242 99 63.03238677978516 97.70458984375 69.07270812988281 95.14974975585938 C 74.907470703125 92.68185424804688 80.14784240722656 89.14862823486328 84.64822387695312 84.64822387695312 C 89.14862823486328 80.14784240722656 92.68185424804688 74.907470703125 95.14974975585938 69.07270812988281 C 97.70458984375 63.03238677978516 99 56.61539840698242 99 50 C 99 43.38460159301758 97.70458984375 36.96761322021484 95.14974975585938 30.92729187011719 C 92.68185424804688 25.09253692626953 89.14862823486328 19.85215759277344 84.64822387695312 15.35177612304688 C 80.14784240722656 10.85137176513672 74.907470703125 7.318145751953125 69.07270812988281 4.850250244140625 C 63.03238677978516 2.29541015625 56.61539840698242 1 50 1 M 50 0 C 77.61424255371094 0 100 22.38575744628906 100 50 C 100 77.61424255371094 77.61424255371094 100 50 100 C 22.38575744628906 100 0 77.61424255371094 0 50 C 0 22.38575744628906 22.38575744628906 0 50 0 Z"/></g><path class="c" d="M-33.99,0h22.98V-5.64h-7.5V-38.16h-5.16a25.647,25.647,0,0,1-8.82,3.12v4.32h7.02V-5.64h-8.52ZM.03.72A4.452,4.452,0,0,0,4.47-3.96,4.452,4.452,0,0,0,.03-8.64a4.5,4.5,0,0,0-4.5,4.68A4.5,4.5,0,0,0,.03.72Zm22.08,0c7.02,0,13.44-4.8,13.44-13.14,0-8.22-5.46-11.94-12-11.94a10.812,10.812,0,0,0-5.04,1.26l.78-9.24h14.4v-5.82H13.29L12.15-19.32l3.3,2.1c2.28-1.5,3.66-2.16,6.12-2.16,4.2,0,7.02,2.58,7.02,7.14,0,4.62-3.12,7.32-7.38,7.32-3.84,0-6.66-1.92-8.94-4.08L9.09-4.56A17.516,17.516,0,0,0,22.11.72Z" transform="translate(50 71.5)"/></g><path class="a" d="M25.1,16h1.856V7.1H29.98V5.536h-7.9V7.1H25.1Zm10.272.192c2.736,0,4.624-2.08,4.624-5.472,0-3.376-1.888-5.376-4.624-5.376-2.72,0-4.608,2-4.608,5.376C30.764,14.112,32.652,16.192,35.372,16.192Zm0-1.616c-1.648,0-2.7-1.5-2.7-3.856,0-2.336,1.056-3.76,2.7-3.76s2.7,1.424,2.7,3.76C38.076,13.072,37.02,14.576,35.372,14.576ZM43.788,16h1.856V7.1h3.024V5.536h-7.9V7.1h3.024Zm8.128-5.568c.336-1.1.64-2.288.928-3.456h.064c.3,1.152.608,2.352.944,3.456l.368,1.28H51.548ZM48.412,16H50.3l.816-2.832h3.52L55.452,16H57.4L54,5.536H51.82ZM58.7,16h6.208V14.432H60.556v-8.9H58.7Zm11.232,0h1.856V12.944l1.5-1.872L76.124,16h2.048l-3.76-6.384,3.216-4.08H75.564l-3.728,4.752h-.048V5.536H69.932Zm9.552,0H81.26V11.424c0-1.168-.16-2.432-.24-3.536h.064l1.072,2.224L85.42,16h1.9V5.536H85.548V10.08c0,1.168.16,2.5.24,3.568h-.064l-1.072-2.224L81.388,5.536h-1.9Zm10.5,0h6.464V14.432H91.836V11.344H95.6V9.776h-3.76V7.1h4.448V5.536h-6.3Zm8.608,0h6.464V14.432h-4.608V11.344h3.76V9.776h-3.76V7.1h4.448V5.536h-6.3Zm14.864.192c2.352,0,3.76-1.408,3.76-3.1a2.928,2.928,0,0,0-2.112-2.832l-1.424-.592c-.864-.352-1.664-.656-1.664-1.472,0-.768.656-1.232,1.648-1.232a3.41,3.41,0,0,1,2.272.9l.944-1.184a4.619,4.619,0,0,0-3.216-1.328c-2.048,0-3.52,1.28-3.52,2.944a3.016,3.016,0,0,0,2.112,2.784l1.44.624c.944.4,1.616.672,1.616,1.536,0,.816-.64,1.344-1.824,1.344a4.161,4.161,0,0,1-2.72-1.184l-1.088,1.264A5.42,5.42,0,0,0,113.452,16.192Zm9.84,0a4.219,4.219,0,0,0,3.3-1.52L125.6,13.5a2.981,2.981,0,0,1-2.24,1.072c-1.76,0-2.88-1.44-2.88-3.824,0-2.352,1.216-3.792,2.928-3.792a2.728,2.728,0,0,1,1.984.912l.992-1.2a4.154,4.154,0,0,0-3.024-1.328c-2.64,0-4.784,2.032-4.784,5.456C118.572,14.272,120.652,16.192,123.292,16.192Zm8.576,0c2.736,0,4.624-2.08,4.624-5.472,0-3.376-1.888-5.376-4.624-5.376-2.72,0-4.608,2-4.608,5.376C127.26,14.112,129.148,16.192,131.868,16.192Zm0-1.616c-1.648,0-2.7-1.5-2.7-3.856,0-2.336,1.056-3.76,2.7-3.76s2.7,1.424,2.7,3.76C134.572,13.072,133.516,14.576,131.868,14.576ZM138.588,16h1.856V11.9h1.6L144.3,16h2.08l-2.5-4.368a2.929,2.929,0,0,0,2.08-2.992c0-2.336-1.664-3.1-3.84-3.1h-3.536Zm1.856-5.568V7.024h1.488c1.424,0,2.208.416,2.208,1.616,0,1.184-.784,1.792-2.208,1.792ZM148.06,16h6.464V14.432h-4.608V11.344h3.76V9.776h-3.76V7.1h4.448V5.536h-6.3Z" transform="translate(346 251)"/><g transform="translate(385 279)"><g class="f"><circle class="h" cx="50" cy="50" r="50"/><circle class="k" cx="50" cy="50" r="49.5"/></g><path class="c" d="M-33.99,0h22.98V-5.64h-7.5V-38.16h-5.16a25.647,25.647,0,0,1-8.82,3.12v4.32h7.02V-5.64h-8.52ZM.03.72A4.452,4.452,0,0,0,4.47-3.96,4.452,4.452,0,0,0,.03-8.64a4.5,4.5,0,0,0-4.5,4.68A4.5,4.5,0,0,0,.03.72Zm22.08,0c7.02,0,13.44-4.8,13.44-13.14,0-8.22-5.46-11.94-12-11.94a10.812,10.812,0,0,0-5.04,1.26l.78-9.24h14.4v-5.82H13.29L12.15-19.32l3.3,2.1c2.28-1.5,3.66-2.16,6.12-2.16,4.2,0,7.02,2.58,7.02,7.14,0,4.62-3.12,7.32-7.38,7.32-3.84,0-6.66-1.92-8.94-4.08L9.09-4.56A17.516,17.516,0,0,0,22.11.72Z" transform="translate(50 72.709)"/></g><line class="g" x1="393.752" transform="translate(125.248 399)"/></g></svg>