<svg xmlns="http://www.w3.org/2000/svg" width="391" height="285.381" viewBox="0 0 391 285.381"><defs><style>.a{fill:#707070;}.b{fill:#65af05;}.c{fill:#fff;}.d,.g,.k{fill:none;}.d,.g{stroke:#707070;}.d{stroke-linecap:round;stroke-width:4px;}.e,.f{fill:#780a6e;}.f{stroke:#780a6e;}.g{stroke-width:0.5px;}.h,.i,.j{stroke:none;}.i{fill:#65af05;}.j{fill:#780a6e;}</style></defs><g transform="translate(-128 -238.344)"><path class="a" d="M6.028,22.264c3.234,0,5.17-1.936,5.17-4.268,0-2.09-1.21-3.168-2.9-3.894l-1.958-.814c-1.188-.484-2.288-.9-2.288-2.024,0-1.056.9-1.694,2.266-1.694A4.688,4.688,0,0,1,9.438,10.8l1.3-1.628A6.351,6.351,0,0,0,6.314,7.348c-2.816,0-4.84,1.76-4.84,4.048a4.147,4.147,0,0,0,2.9,3.828l1.98.858c1.3.55,2.222.924,2.222,2.112,0,1.122-.88,1.848-2.508,1.848a5.722,5.722,0,0,1-3.74-1.628l-1.5,1.738A7.453,7.453,0,0,0,6.028,22.264Zm13.53,0a5.8,5.8,0,0,0,4.532-2.09l-1.364-1.606a4.1,4.1,0,0,1-3.08,1.474c-2.42,0-3.96-1.98-3.96-5.258,0-3.234,1.672-5.214,4.026-5.214a3.752,3.752,0,0,1,2.728,1.254L23.8,9.174a5.712,5.712,0,0,0-4.158-1.826c-3.63,0-6.578,2.794-6.578,7.5C13.068,19.624,15.928,22.264,19.558,22.264Zm11.792,0c3.762,0,6.358-2.86,6.358-7.524,0-4.642-2.6-7.392-6.358-7.392-3.74,0-6.336,2.75-6.336,7.392C25.014,19.4,27.61,22.264,31.35,22.264Zm0-2.222c-2.266,0-3.718-2.068-3.718-5.3,0-3.212,1.452-5.17,3.718-5.17s3.718,1.958,3.718,5.17C35.068,17.974,33.616,20.042,31.35,20.042ZM40.59,22h2.552V16.368h2.2L48.444,22H51.3l-3.432-6.006a4.027,4.027,0,0,0,2.86-4.114c0-3.212-2.288-4.268-5.28-4.268H40.59Zm2.552-7.656V9.658h2.046c1.958,0,3.036.572,3.036,2.222,0,1.628-1.078,2.464-3.036,2.464ZM53.614,22H62.5V19.844H56.166V15.6h5.17V13.442h-5.17V9.768h6.116V7.612H53.614Zm19.14,0h2.552V9.768h4.158V7.612H68.6V9.768h4.158Zm14.124.264c3.762,0,6.358-2.86,6.358-7.524,0-4.642-2.6-7.392-6.358-7.392-3.74,0-6.336,2.75-6.336,7.392C80.542,19.4,83.138,22.264,86.878,22.264Zm0-2.222c-2.266,0-3.718-2.068-3.718-5.3,0-3.212,1.452-5.17,3.718-5.17S90.6,11.528,90.6,14.74C90.6,17.974,89.144,20.042,86.878,20.042ZM98.45,22H101V9.768h4.158V7.612H94.292V9.768H98.45Zm11.176-7.656c.462-1.518.88-3.146,1.276-4.752h.088c.418,1.584.836,3.234,1.3,4.752l.506,1.76H109.12ZM104.808,22h2.6l1.122-3.894h4.84L114.488,22h2.684L112.486,7.612h-2.992Zm14.146,0h8.536V19.844h-5.984V7.612h-2.552ZM1.826,48H5.808c4.268,0,6.864-2.486,6.864-7.26,0-4.752-2.6-7.128-7-7.128H1.826Zm2.552-2.068V35.68H5.5c2.9,0,4.554,1.54,4.554,5.06,0,3.542-1.65,5.192-4.554,5.192Zm16.588,2.332c3.344,0,5.434-1.848,5.434-6.578V33.612H23.958v8.272c0,3.124-1.232,4.158-2.992,4.158-1.738,0-2.9-1.034-2.9-4.158V33.612H15.51v8.074C15.51,46.416,17.644,48.264,20.966,48.264ZM34.386,48h2.552V42.72h2.068c3.1,0,5.478-1.474,5.478-4.664,0-3.344-2.376-4.444-5.566-4.444H34.386Zm2.552-7.326V35.658H38.72c2.134,0,3.256.594,3.256,2.4,0,1.76-1.034,2.618-3.168,2.618Zm12.1-.33c.462-1.518.88-3.146,1.276-4.752H50.4c.418,1.584.836,3.234,1.3,4.752l.506,1.76H48.532ZM44.22,48h2.6l1.122-3.894h4.84L53.9,48h2.684L51.9,33.612H48.906Zm15.642,0h2.552V35.768h4.158V33.612H55.7v2.156h4.158Zm9.108,0h2.552V33.612H68.97Zm6.2,0h8.888V45.844H77.726V41.6H82.9V39.442h-5.17V35.768h6.116V33.612H75.174ZM87.01,48h2.442V41.708c0-1.606-.22-3.344-.33-4.862h.088L90.684,39.9,95.172,48H97.79V33.612H95.348V39.86c0,1.606.22,3.432.33,4.906H95.59l-1.474-3.058-4.488-8.1H87.01Zm17.336,0H106.9V35.768h4.158V33.612H100.188v2.156h4.158ZM120.8,40.344c.462-1.518.88-3.146,1.276-4.752h.088c.418,1.584.836,3.234,1.3,4.752l.506,1.76H120.3ZM115.984,48h2.6l1.122-3.894h4.84L125.664,48h2.684l-4.686-14.388H120.67Zm6.446-15.136,1.122-1.276-3.454-2.97-1.364,1.672ZM1.826,74h8.536V71.844H4.378V59.612H1.826Zm9.24-8.6a4.616,4.616,0,0,0,2.75-4.312c0-1.54-.616-2.442-1.738-2.442a1.4,1.4,0,0,0-1.43,1.518,1.346,1.346,0,0,0,1.43,1.364.609.609,0,0,0,.2-.022,3.016,3.016,0,0,1-1.826,2.772ZM16.852,74H25.74V71.844H19.4V67.6h5.17V65.442H19.4V61.768H25.52V59.612H16.852ZM21.01,58.864l3.7-2.574-1.364-1.672-3.454,2.97Zm13.42,15.4a5.8,5.8,0,0,0,4.532-2.09L37.6,70.568a4.1,4.1,0,0,1-3.08,1.474c-2.42,0-3.96-1.98-3.96-5.258,0-3.234,1.672-5.214,4.026-5.214a3.752,3.752,0,0,1,2.728,1.254l1.364-1.65a5.712,5.712,0,0,0-4.158-1.826c-3.63,0-6.578,2.794-6.578,7.5C27.94,71.624,30.8,74.264,34.43,74.264ZM41.36,74h2.552V67.62h5.83V74h2.552V59.612H49.742V65.4h-5.83V59.612H41.36Zm14.586,0h8.888V71.844H58.5V67.6h5.17V65.442H58.5V61.768h6.116V59.612H55.946Zm11.836,0h8.536V71.844H70.334V59.612H67.782Zm11.044,0h8.536V71.844H81.378V59.612H78.826ZM89.87,74h8.888V71.844H92.422V67.6h5.17V65.442h-5.17V61.768h6.116V59.612H89.87Zm16.236,0h2.552V68.368h2.2L113.96,74h2.86l-3.432-6.006a4.027,4.027,0,0,0,2.86-4.114c0-3.212-2.288-4.268-5.28-4.268h-4.862Zm2.552-7.656V61.658H110.7c1.958,0,3.036.572,3.036,2.222,0,1.628-1.078,2.464-3.036,2.464Zm14.366,7.92c3.234,0,5.17-1.936,5.17-4.268,0-2.09-1.21-3.168-2.9-3.894l-1.958-.814c-1.188-.484-2.288-.9-2.288-2.024,0-1.056.9-1.694,2.266-1.694a4.688,4.688,0,0,1,3.124,1.232l1.3-1.628a6.351,6.351,0,0,0-4.422-1.826c-2.816,0-4.84,1.76-4.84,4.048a4.147,4.147,0,0,0,2.9,3.828l1.98.858c1.3.55,2.222.924,2.222,2.112,0,1.122-.88,1.848-2.508,1.848a5.722,5.722,0,0,1-3.74-1.628l-1.5,1.738A7.453,7.453,0,0,0,123.024,74.264Zm11.638,0c3.234,0,5.17-1.936,5.17-4.268,0-2.09-1.21-3.168-2.9-3.894l-1.958-.814c-1.188-.484-2.288-.9-2.288-2.024,0-1.056.9-1.694,2.266-1.694a4.688,4.688,0,0,1,3.124,1.232l1.3-1.628a6.351,6.351,0,0,0-4.422-1.826c-2.816,0-4.84,1.76-4.84,4.048a4.147,4.147,0,0,0,2.9,3.828l1.98.858c1.3.55,2.222.924,2.222,2.112,0,1.122-.88,1.848-2.508,1.848a5.722,5.722,0,0,1-3.74-1.628l-1.5,1.738A7.453,7.453,0,0,0,134.662,74.264Z" transform="translate(128 427)"/><g transform="translate(-18.012 -21)"><g class="b" transform="translate(396 435)"><path class="h" d="M 54.86266708374023 109.225341796875 C 47.52353668212891 109.225341796875 40.40419387817383 107.7880706787109 33.70241165161133 104.9534530639648 C 30.48130989074707 103.5910568237305 27.37452507019043 101.9047317504883 24.46832466125488 99.94135284423828 C 21.58962440490723 97.99654388427734 18.88259506225586 95.76303100585938 16.42245292663574 93.30288696289062 C 13.96230983734131 90.84274291992188 11.72881031036377 88.13571166992188 9.783995628356934 85.25701141357422 C 7.820610046386719 82.350830078125 6.134295463562012 79.24402618408203 4.771881580352783 76.02292633056641 C 1.937267065048218 69.32114410400391 0.4999956488609314 62.20181274414062 0.4999956488609314 54.8626708984375 C 0.4999956488609314 47.52354049682617 1.937267065048218 40.40419769287109 4.771881580352783 33.70241546630859 C 6.134295463562012 30.48131370544434 7.820610046386719 27.3745288848877 9.783995628356934 24.46832847595215 C 11.72881031036377 21.58962821960449 13.96230983734131 18.88259887695312 16.42245292663574 16.42245674133301 C 18.88259506225586 13.96231365203857 21.58962440490723 11.72881412506104 24.46832466125488 9.783999443054199 C 27.37452507019043 7.820613861083984 30.48130989074707 6.134299278259277 33.70241165161133 4.771885395050049 C 40.40419387817383 1.937270879745483 47.52353668212891 0.499999463558197 54.86266708374023 0.499999463558197 C 62.20180892944336 0.499999463558197 69.32113647460938 1.937270879745483 76.02292633056641 4.771885395050049 C 79.24402618408203 6.134299278259277 82.35082244873047 7.820613861083984 85.25701141357422 9.783999443054199 C 88.13571166992188 11.72881412506104 90.84273529052734 13.96231365203857 93.30287933349609 16.42245674133301 C 95.76302337646484 18.88259887695312 97.99653625488281 21.58962821960449 99.94135284423828 24.46832847595215 C 101.9047241210938 27.3745288848877 103.5910491943359 30.48131370544434 104.9534530639648 33.70241546630859 C 107.7880706787109 40.40419769287109 109.225341796875 47.52354049682617 109.225341796875 54.8626708984375 C 109.225341796875 62.20181274414062 107.7880706787109 69.32114410400391 104.9534530639648 76.02292633056641 C 103.5910491943359 79.24402618408203 101.9047241210938 82.350830078125 99.94135284423828 85.25701141357422 C 97.99653625488281 88.13571166992188 95.76303863525391 90.84274291992188 93.30287933349609 93.30288696289062 C 90.84273529052734 95.76303863525391 88.13571166992188 97.99654388427734 85.25701141357422 99.94135284423828 C 82.35082244873047 101.9047317504883 79.24402618408203 103.5910568237305 76.02292633056641 104.9534530639648 C 69.32113647460938 107.7880706787109 62.20180892944336 109.225341796875 54.86266708374023 109.225341796875 Z"/><path class="i" d="M 54.86266708374023 1 C 47.5908088684082 1 40.53701019287109 2.423988342285156 33.89719390869141 5.232383728027344 C 30.70582580566406 6.58221435546875 27.62767028808594 8.252998352050781 24.74823760986328 10.19830322265625 C 21.89589691162109 12.12531280517578 19.21365356445312 14.33837127685547 16.77600860595703 16.77601623535156 C 14.33836364746094 19.21365356445312 12.12531280517578 21.89589691162109 10.19829559326172 24.74824523925781 C 8.252998352050781 27.62767028808594 6.582206726074219 30.70582580566406 5.232383728027344 33.89720153808594 C 2.423980712890625 40.53701019287109 0.9999923706054688 47.59081268310547 0.9999923706054688 54.8626708984375 C 0.9999923706054688 62.13452911376953 2.423980712890625 69.18832397460938 5.232383728027344 75.82814025878906 C 6.582206726074219 79.01951599121094 8.252998352050781 82.09767150878906 10.19829559326172 84.97709655761719 C 12.12531280517578 87.82944488525391 14.33836364746094 90.51168823242188 16.77600860595703 92.94932556152344 C 19.21365356445312 95.38697052001953 21.89589691162109 97.60002899169922 24.74823760986328 99.52703857421875 C 27.62767028808594 101.4723434448242 30.70582580566406 103.1431274414062 33.89719390869141 104.4929580688477 C 40.53701019287109 107.3013534545898 47.5908088684082 108.725341796875 54.86266708374023 108.725341796875 C 62.13452529907227 108.725341796875 69.18833923339844 107.3013534545898 75.82815551757812 104.4929580688477 C 79.01950836181641 103.1431274414062 82.09767150878906 101.4723434448242 84.97711181640625 99.52703857421875 C 87.82943725585938 97.60002899169922 90.51168060302734 95.38697052001953 92.9493408203125 92.94932556152344 C 95.38697814941406 90.51168823242188 97.60003662109375 87.82944488525391 99.52703857421875 84.97709655761719 C 101.4723358154297 82.09767150878906 103.1431274414062 79.01951599121094 104.4929504394531 75.82814025878906 C 107.3013534545898 69.18832397460938 108.725341796875 62.13452911376953 108.725341796875 54.8626708984375 C 108.725341796875 47.59081268310547 107.3013534545898 40.53701019287109 104.4929504394531 33.89720153808594 C 103.1431274414062 30.70582580566406 101.4723358154297 27.62767028808594 99.52703857421875 24.74824523925781 C 97.60003662109375 21.89589691162109 95.38697814941406 19.21365356445312 92.9493408203125 16.77601623535156 C 90.51168060302734 14.33837127685547 87.82943725585938 12.12531280517578 84.97711181640625 10.19830322265625 C 82.09767150878906 8.252998352050781 79.01950836181641 6.58221435546875 75.82815551757812 5.232383728027344 C 69.18833923339844 2.423988342285156 62.13452529907227 1 54.86266708374023 1 M 54.86266708374023 0 C 85.16249847412109 0 109.725341796875 24.56285858154297 109.725341796875 54.8626708984375 C 109.725341796875 85.16248321533203 85.16249847412109 109.725341796875 54.86266708374023 109.725341796875 C 24.56285095214844 109.725341796875 -7.62939453125e-06 85.16248321533203 -7.62939453125e-06 54.8626708984375 C -7.62939453125e-06 24.56285858154297 24.56285095214844 0 54.86266708374023 0 Z"/></g><path class="c" d="M-1.369,1C8.757,1,17.14-4.648,17.14-14.276c0-6.972-4.731-11.454-10.956-13.114v-.332C11.911-29.963,15.4-33.947,15.4-39.84c0-8.964-6.972-13.944-17.1-13.944-6.308,0-11.371,2.656-15.853,6.64l4.9,5.893c3.237-2.988,6.474-4.98,10.624-4.98,4.814,0,7.8,2.656,7.8,7.055,0,4.9-3.4,8.466-13.778,8.466v6.972c12.035,0,15.521,3.486,15.521,8.964,0,4.98-3.984,7.968-9.711,7.968-5.312,0-9.379-2.573-12.533-5.81L-19.3-6.474C-15.562-2.324-9.918,1-1.369,1Z" transform="translate(452.45 519.11)"/></g><g transform="translate(304 459)"><line class="d" x2="41.988" transform="translate(0)"/><line class="d" x2="41.988" transform="translate(0 19.064)"/></g><g transform="translate(283.383 309)"><line class="d" x2="48" transform="translate(-0.383 24)"/><line class="d" y1="48" transform="translate(23.617)"/></g><path class="a" d="M9.276,16.192c2.352,0,3.76-1.408,3.76-3.1a2.928,2.928,0,0,0-2.112-2.832L9.5,9.664c-.864-.352-1.664-.656-1.664-1.472,0-.768.656-1.232,1.648-1.232a3.41,3.41,0,0,1,2.272.9L12.7,6.672A4.619,4.619,0,0,0,9.484,5.344c-2.048,0-3.52,1.28-3.52,2.944a3.016,3.016,0,0,0,2.112,2.784l1.44.624c.944.4,1.616.672,1.616,1.536,0,.816-.64,1.344-1.824,1.344a4.161,4.161,0,0,1-2.72-1.184L5.5,14.656A5.42,5.42,0,0,0,9.276,16.192Zm9.84,0a4.219,4.219,0,0,0,3.3-1.52L21.42,13.5a2.981,2.981,0,0,1-2.24,1.072c-1.76,0-2.88-1.44-2.88-3.824,0-2.352,1.216-3.792,2.928-3.792a2.728,2.728,0,0,1,1.984.912l.992-1.2A4.154,4.154,0,0,0,19.18,5.344c-2.64,0-4.784,2.032-4.784,5.456C14.4,14.272,16.476,16.192,19.116,16.192Zm8.576,0c2.736,0,4.624-2.08,4.624-5.472,0-3.376-1.888-5.376-4.624-5.376-2.72,0-4.608,2-4.608,5.376C23.084,14.112,24.972,16.192,27.692,16.192Zm0-1.616c-1.648,0-2.7-1.5-2.7-3.856,0-2.336,1.056-3.76,2.7-3.76s2.7,1.424,2.7,3.76C30.4,13.072,29.34,14.576,27.692,14.576ZM34.412,16h1.856V11.9h1.6L40.124,16H42.2l-2.5-4.368a2.929,2.929,0,0,0,2.08-2.992c0-2.336-1.664-3.1-3.84-3.1H34.412Zm1.856-5.568V7.024h1.488c1.424,0,2.208.416,2.208,1.616,0,1.184-.784,1.792-2.208,1.792ZM43.884,16h6.464V14.432H45.74V11.344H49.5V9.776H45.74V7.1h4.448V5.536h-6.3ZM57.8,16H59.66V7.1h3.024V5.536h-7.9V7.1H57.8Zm10.272.192c2.736,0,4.624-2.08,4.624-5.472,0-3.376-1.888-5.376-4.624-5.376-2.72,0-4.608,2-4.608,5.376C63.468,14.112,65.356,16.192,68.076,16.192Zm0-1.616c-1.648,0-2.7-1.5-2.7-3.856,0-2.336,1.056-3.76,2.7-3.76s2.7,1.424,2.7,3.76C70.78,13.072,69.724,14.576,68.076,14.576ZM76.492,16h1.856V7.1h3.024V5.536h-7.9V7.1h3.024Zm8.128-5.568c.336-1.1.64-2.288.928-3.456h.064c.3,1.152.608,2.352.944,3.456l.368,1.28H84.252ZM81.116,16H83l.816-2.832h3.52L88.156,16h1.952L86.7,5.536H84.524ZM91.4,16h6.208V14.432H93.26v-8.9H91.4ZM9.74,34h2.9c3.1,0,4.992-1.808,4.992-5.28,0-3.456-1.888-5.184-5.088-5.184H9.74ZM11.6,32.5V25.04h.816c2.112,0,3.312,1.12,3.312,3.68,0,2.576-1.2,3.776-3.312,3.776Zm12.064,1.7c2.432,0,3.952-1.344,3.952-4.784V23.536H25.836v6.016c0,2.272-.9,3.024-2.176,3.024-1.264,0-2.112-.752-2.112-3.024V23.536H19.692v5.872C19.692,32.848,21.244,34.192,23.66,34.192ZM33.42,34h1.856V30.16h1.5c2.256,0,3.984-1.072,3.984-3.392,0-2.432-1.728-3.232-4.048-3.232h-3.3Zm1.856-5.328V25.024h1.3c1.552,0,2.368.432,2.368,1.744,0,1.28-.752,1.9-2.3,1.9Zm11.52,5.52c2.736,0,4.624-2.08,4.624-5.472,0-3.376-1.888-5.376-4.624-5.376-2.72,0-4.608,2-4.608,5.376C42.188,32.112,44.076,34.192,46.8,34.192Zm0-1.616c-1.648,0-2.7-1.5-2.7-3.856,0-2.336,1.056-3.76,2.7-3.76s2.7,1.424,2.7,3.76C49.5,31.072,48.444,32.576,46.8,32.576ZM53.516,34h1.856V23.536H53.516Zm8.9.192a4.8,4.8,0,0,0,3.344-1.248V28.336H62.108v1.52h1.984v2.256a2.313,2.313,0,0,1-1.5.464c-2.1,0-3.2-1.44-3.2-3.824,0-2.352,1.248-3.792,3.1-3.792a2.834,2.834,0,0,1,2.112.912l.992-1.2a4.308,4.308,0,0,0-3.168-1.328c-2.784,0-4.944,2.032-4.944,5.456C57.484,32.272,59.58,34.192,62.412,34.192ZM68.076,34h1.776V29.424c0-1.168-.16-2.432-.24-3.536h.064l1.072,2.224L74.012,34h1.9V23.536H74.14V28.08c0,1.168.16,2.5.24,3.568h-.064l-1.072-2.224L69.98,23.536h-1.9Zm10.5,0h6.464V32.432H80.428V29.344h3.76V27.776h-3.76V25.1h4.448V23.536h-6.3Zm10.72,0h1.856V25.1h3.024V23.536h-7.9V25.1h3.024Z" transform="translate(126 233)"/><g transform="translate(128 280)"><g class="e"><path class="h" d="M 50 99.5 C 43.31732177734375 99.5 36.83480072021484 98.19129180908203 30.73251914978027 95.61025238037109 C 24.8381462097168 93.11714935302734 19.54437255859375 89.54794311523438 14.99821376800537 85.00178527832031 C 10.45205307006836 80.45562744140625 6.882853507995605 75.16184997558594 4.38974666595459 69.26747894287109 C 1.808706641197205 63.16519927978516 0.5 56.68267822265625 0.5 50 C 0.5 43.31732177734375 1.808706641197205 36.83480072021484 4.38974666595459 30.73251914978027 C 6.882853507995605 24.8381462097168 10.45205307006836 19.54437255859375 14.99821376800537 14.99821376800537 C 19.54437255859375 10.45205307006836 24.8381462097168 6.882853507995605 30.73251914978027 4.38974666595459 C 36.83480072021484 1.808706641197205 43.31732177734375 0.5 50 0.5 C 56.68267822265625 0.5 63.16519927978516 1.808706641197205 69.26747894287109 4.38974666595459 C 75.16184997558594 6.882853507995605 80.45562744140625 10.45205307006836 85.00178527832031 14.99821376800537 C 89.54794311523438 19.54437255859375 93.11714935302734 24.8381462097168 95.61025238037109 30.73251914978027 C 98.19129180908203 36.83480072021484 99.5 43.31732177734375 99.5 50 C 99.5 56.68267822265625 98.19129180908203 63.16519927978516 95.61025238037109 69.26747894287109 C 93.11714935302734 75.16184997558594 89.54794311523438 80.45562744140625 85.00178527832031 85.00178527832031 C 80.45562744140625 89.54794311523438 75.16184997558594 93.11714935302734 69.26747894287109 95.61025238037109 C 63.16519927978516 98.19129180908203 56.68267822265625 99.5 50 99.5 Z"/><path class="j" d="M 50 1 C 43.38460159301758 1 36.96761322021484 2.29541015625 30.92729187011719 4.850250244140625 C 25.09253692626953 7.318145751953125 19.85215759277344 10.85137176513672 15.35177612304688 15.35177612304688 C 10.85137176513672 19.85215759277344 7.318145751953125 25.09253692626953 4.850250244140625 30.92729187011719 C 2.29541015625 36.96761322021484 1 43.38460159301758 1 50 C 1 56.61539840698242 2.29541015625 63.03238677978516 4.850250244140625 69.07270812988281 C 7.318145751953125 74.907470703125 10.85137176513672 80.14784240722656 15.35177612304688 84.64822387695312 C 19.85215759277344 89.14862823486328 25.09253692626953 92.68185424804688 30.92729187011719 95.14974975585938 C 36.96761322021484 97.70458984375 43.38460159301758 99 50 99 C 56.61539840698242 99 63.03238677978516 97.70458984375 69.07270812988281 95.14974975585938 C 74.907470703125 92.68185424804688 80.14784240722656 89.14862823486328 84.64822387695312 84.64822387695312 C 89.14862823486328 80.14784240722656 92.68185424804688 74.907470703125 95.14974975585938 69.07270812988281 C 97.70458984375 63.03238677978516 99 56.61539840698242 99 50 C 99 43.38460159301758 97.70458984375 36.96761322021484 95.14974975585938 30.92729187011719 C 92.68185424804688 25.09253692626953 89.14862823486328 19.85215759277344 84.64822387695312 15.35177612304688 C 80.14784240722656 10.85137176513672 74.907470703125 7.318145751953125 69.07270812988281 4.850250244140625 C 63.03238677978516 2.29541015625 56.61539840698242 1 50 1 M 50 0 C 77.61424255371094 0 100 22.38575744628906 100 50 C 100 77.61424255371094 77.61424255371094 100 50 100 C 22.38575744628906 100 0 77.61424255371094 0 50 C 0 22.38575744628906 22.38575744628906 0 50 0 Z"/></g><path class="c" d="M-33.99,0h22.98V-5.64h-7.5V-38.16h-5.16a25.647,25.647,0,0,1-8.82,3.12v4.32h7.02V-5.64h-8.52ZM.03.72A4.452,4.452,0,0,0,4.47-3.96,4.452,4.452,0,0,0,.03-8.64a4.5,4.5,0,0,0-4.5,4.68A4.5,4.5,0,0,0,.03.72Zm22.08,0c7.02,0,13.44-4.8,13.44-13.14,0-8.22-5.46-11.94-12-11.94a10.812,10.812,0,0,0-5.04,1.26l.78-9.24h14.4v-5.82H13.29L12.15-19.32l3.3,2.1c2.28-1.5,3.66-2.16,6.12-2.16,4.2,0,7.02,2.58,7.02,7.14,0,4.62-3.12,7.32-7.38,7.32-3.84,0-6.66-1.92-8.94-4.08L9.09-4.56A17.516,17.516,0,0,0,22.11.72Z" transform="translate(50 71.5)"/></g><path class="a" d="M7.776,16.192c2.352,0,3.76-1.408,3.76-3.1a2.928,2.928,0,0,0-2.112-2.832L8,9.664c-.864-.352-1.664-.656-1.664-1.472,0-.768.656-1.232,1.648-1.232a3.41,3.41,0,0,1,2.272.9L11.2,6.672A4.619,4.619,0,0,0,7.984,5.344c-2.048,0-3.52,1.28-3.52,2.944a3.016,3.016,0,0,0,2.112,2.784l1.44.624c.944.4,1.616.672,1.616,1.536,0,.816-.64,1.344-1.824,1.344a4.161,4.161,0,0,1-2.72-1.184L4,14.656A5.42,5.42,0,0,0,7.776,16.192Zm9.84,0a4.219,4.219,0,0,0,3.3-1.52L19.92,13.5a2.981,2.981,0,0,1-2.24,1.072c-1.76,0-2.88-1.44-2.88-3.824,0-2.352,1.216-3.792,2.928-3.792a2.728,2.728,0,0,1,1.984.912l.992-1.2A4.154,4.154,0,0,0,17.68,5.344c-2.64,0-4.784,2.032-4.784,5.456C12.9,14.272,14.976,16.192,17.616,16.192Zm8.576,0c2.736,0,4.624-2.08,4.624-5.472,0-3.376-1.888-5.376-4.624-5.376-2.72,0-4.608,2-4.608,5.376C21.584,14.112,23.472,16.192,26.192,16.192Zm0-1.616c-1.648,0-2.7-1.5-2.7-3.856,0-2.336,1.056-3.76,2.7-3.76s2.7,1.424,2.7,3.76C28.9,13.072,27.84,14.576,26.192,14.576ZM32.912,16h1.856V11.9h1.6L38.624,16H40.7l-2.5-4.368a2.929,2.929,0,0,0,2.08-2.992c0-2.336-1.664-3.1-3.84-3.1H32.912Zm1.856-5.568V7.024h1.488c1.424,0,2.208.416,2.208,1.616,0,1.184-.784,1.792-2.208,1.792ZM42.384,16h6.464V14.432H44.24V11.344H48V9.776H44.24V7.1h4.448V5.536h-6.3ZM56.3,16H58.16V7.1h3.024V5.536h-7.9V7.1H56.3Zm10.272.192c2.736,0,4.624-2.08,4.624-5.472,0-3.376-1.888-5.376-4.624-5.376-2.72,0-4.608,2-4.608,5.376C61.968,14.112,63.856,16.192,66.576,16.192Zm0-1.616c-1.648,0-2.7-1.5-2.7-3.856,0-2.336,1.056-3.76,2.7-3.76s2.7,1.424,2.7,3.76C69.28,13.072,68.224,14.576,66.576,14.576ZM74.992,16h1.856V7.1h3.024V5.536h-7.9V7.1h3.024Zm8.128-5.568c.336-1.1.64-2.288.928-3.456h.064c.3,1.152.608,2.352.944,3.456l.368,1.28H82.752ZM79.616,16H81.5l.816-2.832h3.52L86.656,16h1.952L85.2,5.536H83.024ZM89.9,16h6.208V14.432H91.76v-8.9H89.9ZM14.28,34h2.9c3.1,0,4.992-1.808,4.992-5.28,0-3.456-1.888-5.184-5.088-5.184h-2.8Zm1.856-1.5V25.04h.816c2.112,0,3.312,1.12,3.312,3.68,0,2.576-1.2,3.776-3.312,3.776Zm12.064,1.7c2.432,0,3.952-1.344,3.952-4.784V23.536H30.376v6.016c0,2.272-.9,3.024-2.176,3.024-1.264,0-2.112-.752-2.112-3.024V23.536H24.232v5.872C24.232,32.848,25.784,34.192,28.2,34.192Zm14.144,0a4.8,4.8,0,0,0,3.344-1.248V28.336H42.04v1.52h1.984v2.256a2.314,2.314,0,0,1-1.5.464c-2.1,0-3.2-1.44-3.2-3.824,0-2.352,1.248-3.792,3.1-3.792a2.834,2.834,0,0,1,2.112.912l.992-1.2a4.308,4.308,0,0,0-3.168-1.328c-2.784,0-4.944,2.032-4.944,5.456C37.416,32.272,39.512,34.192,42.344,34.192ZM48.008,34h6.464V32.432H49.864V29.344h3.76V27.776h-3.76V25.1h4.448V23.536h-6.3Zm8.608,0h1.776V29.424c0-1.168-.16-2.432-.24-3.536h.064l1.072,2.224L62.552,34h1.9V23.536H62.68V28.08c0,1.168.16,2.5.24,3.568h-.064l-1.072-2.224L58.52,23.536h-1.9Zm14.56.192c2.736,0,4.624-2.08,4.624-5.472,0-3.376-1.888-5.376-4.624-5.376-2.72,0-4.608,2-4.608,5.376C66.568,32.112,68.456,34.192,71.176,34.192Zm0-1.616c-1.648,0-2.7-1.5-2.7-3.856,0-2.336,1.056-3.76,2.7-3.76s2.7,1.424,2.7,3.76C73.88,31.072,72.824,32.576,71.176,32.576Zm10.64,1.616c2.432,0,3.952-1.344,3.952-4.784V23.536H83.992v6.016c0,2.272-.9,3.024-2.176,3.024-1.264,0-2.112-.752-2.112-3.024V23.536H77.848v5.872C77.848,32.848,79.4,34.192,81.816,34.192Z" transform="translate(384.944 233)"/><g transform="translate(385 280)"><g class="f"><circle class="h" cx="50" cy="50" r="50"/><circle class="k" cx="50" cy="50" r="49.5"/></g><path class="c" d="M-33.99,0h22.98V-5.64h-7.5V-38.16h-5.16a25.647,25.647,0,0,1-8.82,3.12v4.32h7.02V-5.64h-8.52ZM.03.72A4.452,4.452,0,0,0,4.47-3.96,4.452,4.452,0,0,0,.03-8.64a4.5,4.5,0,0,0-4.5,4.68A4.5,4.5,0,0,0,.03.72Zm22.08,0c7.02,0,13.44-4.8,13.44-13.14,0-8.22-5.46-11.94-12-11.94a10.812,10.812,0,0,0-5.04,1.26l.78-9.24h14.4v-5.82H13.29L12.15-19.32l3.3,2.1c2.28-1.5,3.66-2.16,6.12-2.16,4.2,0,7.02,2.58,7.02,7.14,0,4.62-3.12,7.32-7.38,7.32-3.84,0-6.66-1.92-8.94-4.08L9.09-4.56A17.516,17.516,0,0,0,22.11.72Z" transform="translate(50 72.709)"/></g><line class="g" x1="391" transform="translate(128 399)"/></g></svg>