<svg xmlns="http://www.w3.org/2000/svg" width="43.661" height="60.887" viewBox="0 0 43.661 60.887"><defs><style>.a{fill:#fff;}</style></defs><g transform="translate(0 0)"><path class="a" d="M45.641,59.485a4.911,4.911,0,0,0,1.446-3.5l-.025-51A4.95,4.95,0,0,0,42.117.044H8.375A4.947,4.947,0,0,0,3.427,4.992l.028,51A4.95,4.95,0,0,0,8.4,60.931H42.143A4.9,4.9,0,0,0,45.641,59.485Zm-40.149-3.5-.025-51A2.912,2.912,0,0,1,8.375,2.081H42.117a2.91,2.91,0,0,1,2.908,2.908l.025,51A2.9,2.9,0,0,1,42.143,58.9H8.4A2.91,2.91,0,0,1,5.492,55.989Z" transform="translate(-3.427 -0.044)"/><path class="a" d="M9.7,17.126h.16a3.418,3.418,0,1,0-3.5-3.338A3.34,3.34,0,0,0,9.7,17.126Zm.158-4.8a1.344,1.344,0,0,1,1.3,1.459,1.3,1.3,0,0,1-1.3,1.3H9.7a1.382,1.382,0,0,1,.158-2.76Z" transform="translate(1.106 15.802)"/><path class="a" d="M9.72,14.4a3.381,3.381,0,0,0-3.341,3.5A3.344,3.344,0,0,0,9.72,21.24h.16A3.418,3.418,0,1,0,9.72,14.4Zm.16,4.8H9.72a1.382,1.382,0,1,1,1.459-1.3A1.3,1.3,0,0,1,9.88,19.2Z" transform="translate(1.138 22.164)"/><path class="a" d="M9.72,18.519a3.381,3.381,0,0,0-3.341,3.5A3.344,3.344,0,0,0,9.72,25.354h.16a3.418,3.418,0,1,0-.16-6.835Zm.16,4.8H9.72a1.382,1.382,0,1,1,1.459-1.3A1.3,1.3,0,0,1,9.88,23.316Z" transform="translate(1.138 28.526)"/><path class="a" d="M18.263,17.126h.158a3.418,3.418,0,1,0-3.5-3.338A3.343,3.343,0,0,0,18.263,17.126Zm.158-4.8a1.345,1.345,0,0,1,1.3,1.459,1.3,1.3,0,0,1-1.3,1.3h-.158a1.382,1.382,0,1,1,.158-2.76Z" transform="translate(14.354 15.802)"/><path class="a" d="M18.288,14.4a3.381,3.381,0,0,0-3.341,3.5V28.219c0,.028.013.051.015.079s-.015.053-.015.079a3.381,3.381,0,0,0,3.5,3.338,3.344,3.344,0,0,0,3.341-3.338V17.743A3.381,3.381,0,0,0,18.288,14.4Zm0,15.273a1.345,1.345,0,0,1-1.3-1.459V17.743a1.381,1.381,0,1,1,2.758.158V28.219c0,.028.013.051.015.079s-.015.053-.015.079A1.343,1.343,0,0,1,18.288,29.678Z" transform="translate(14.388 22.164)"/><path class="a" d="M13.98,17.126h.158a3.418,3.418,0,1,0-3.5-3.338A3.342,3.342,0,0,0,13.98,17.126Zm.158-4.8a1.345,1.345,0,0,1,1.3,1.459,1.3,1.3,0,0,1-1.3,1.3H13.98a1.382,1.382,0,0,1,.158-2.76Z" transform="translate(7.73 15.802)"/><path class="a" d="M14,14.4a3.381,3.381,0,0,0-3.341,3.5A3.344,3.344,0,0,0,14,21.24h.158A3.418,3.418,0,1,0,14,14.4Zm.155,4.8H14a1.382,1.382,0,1,1,1.457-1.3A1.3,1.3,0,0,1,14.16,19.2Z" transform="translate(7.764 22.164)"/><path class="a" d="M14,18.519a3.381,3.381,0,0,0-3.341,3.5A3.344,3.344,0,0,0,14,25.354h.158A3.418,3.418,0,1,0,14,18.519Zm.155,4.8H14a1.382,1.382,0,1,1,1.457-1.3A1.3,1.3,0,0,1,14.16,23.316Z" transform="translate(7.764 28.526)"/><path class="a" d="M34.129,2.35H9.281A3.571,3.571,0,0,0,5.716,5.915V14.17a3.571,3.571,0,0,0,3.565,3.565H34.129a3.571,3.571,0,0,0,3.565-3.565V5.915A3.569,3.569,0,0,0,34.129,2.35Zm1.528,11.82A1.529,1.529,0,0,1,34.129,15.7H9.281A1.529,1.529,0,0,1,7.753,14.17V5.915A1.529,1.529,0,0,1,9.281,4.387H34.129a1.529,1.529,0,0,1,1.528,1.528Z" transform="translate(0.113 3.522)"/></g></svg>