<svg xmlns="http://www.w3.org/2000/svg" width="21.692" height="21.692" viewBox="0 0 21.692 21.692"><defs><style>.a{fill:#707070;}.b{fill:none;}.c,.d{stroke:none;}.d{fill:#707070;}</style></defs><path class="a" d="M16.545,14.214a3.056,3.056,0,0,1-1.123-.206A2.637,2.637,0,0,1,14.5,13.4a2.865,2.865,0,0,1-.628-1,3.853,3.853,0,0,1-.23-1.386,3.762,3.762,0,0,1,.24-1.386,3.138,3.138,0,0,1,.643-1.031,2.709,2.709,0,0,1,.94-.643,2.951,2.951,0,0,1,1.132-.221,2.352,2.352,0,0,1,1.084.245,2.99,2.99,0,0,1,.8.571l-.748.9a2.4,2.4,0,0,0-.5-.36,1.266,1.266,0,0,0-.6-.139,1.342,1.342,0,0,0-.6.139,1.424,1.424,0,0,0-.489.4,1.972,1.972,0,0,0-.326.633,2.761,2.761,0,0,0-.12.844,2.4,2.4,0,0,0,.413,1.5A1.325,1.325,0,0,0,16.6,13a1.389,1.389,0,0,0,.686-.168,2.122,2.122,0,0,0,.532-.417l.748.883A2.541,2.541,0,0,1,16.545,14.214Zm5.613,0a3.056,3.056,0,0,1-1.123-.206,2.637,2.637,0,0,1-.926-.609,2.865,2.865,0,0,1-.628-1,3.853,3.853,0,0,1-.23-1.386,3.762,3.762,0,0,1,.24-1.386,3.138,3.138,0,0,1,.643-1.031,2.709,2.709,0,0,1,.94-.643,2.951,2.951,0,0,1,1.132-.221,2.352,2.352,0,0,1,1.084.245,2.99,2.99,0,0,1,.8.571l-.748.9a2.4,2.4,0,0,0-.5-.36,1.266,1.266,0,0,0-.6-.139,1.342,1.342,0,0,0-.6.139,1.424,1.424,0,0,0-.489.4,1.972,1.972,0,0,0-.326.633,2.761,2.761,0,0,0-.12.844,2.4,2.4,0,0,0,.413,1.5,1.325,1.325,0,0,0,1.1.533,1.389,1.389,0,0,0,.686-.168,2.122,2.122,0,0,0,.533-.417l.748.883A2.541,2.541,0,0,1,22.158,14.214Z" transform="translate(-7.949 0.085)"/><g class="b"><path class="c" d="M10.846,0A10.846,10.846,0,1,1,0,10.846,10.846,10.846,0,0,1,10.846,0Z"/><path class="d" d="M 10.84608554840088 0.9999980926513672 C 5.416934967041016 0.9999980926513672 0.9999961853027344 5.416936874389648 0.9999961853027344 10.84608745574951 C 0.9999961853027344 16.27523803710938 5.416934967041016 20.69217681884766 10.84608554840088 20.69217681884766 C 16.27523612976074 20.69217681884766 20.69216537475586 16.27523803710938 20.69216537475586 10.84608745574951 C 20.69216537475586 5.416936874389648 16.27523612976074 0.9999980926513672 10.84608554840088 0.9999980926513672 M 10.84608554840088 -1.9073486328125e-06 C 16.83621597290039 -1.9073486328125e-06 21.69216537475586 4.85595703125 21.69216537475586 10.84608745574951 C 21.69216537475586 16.83621788024902 16.83621597290039 21.69217681884766 10.84608554840088 21.69217681884766 C 4.855955123901367 21.69217681884766 -3.814697265625e-06 16.83621788024902 -3.814697265625e-06 10.84608745574951 C -3.814697265625e-06 4.85595703125 4.855955123901367 -1.9073486328125e-06 10.84608554840088 -1.9073486328125e-06 Z"/></g></svg>