<svg xmlns="http://www.w3.org/2000/svg" width="41" height="41" viewBox="0 0 41 41"><defs><style>.a{fill:#fff;stroke:#003459;}.b{fill:#003459;}</style></defs><g transform="translate(0.5 0.5)"><path class="a" d="M20,0A20,20,0,1,1,0,20,20,20,0,0,1,20,0Z"/><path class="b" d="M429.4-148.043l-1.753-1.012a.894.894,0,0,0-1.221.327.889.889,0,0,0-.119.445v17.7a.891.891,0,0,0,.889.893.885.885,0,0,0,.451-.121l15.331-8.851a.893.893,0,0,0,.446-.773.893.893,0,0,0-.446-.773l-7.073-4.084Z" transform="translate(-412.756 159.891)"/></g></svg>