<svg xmlns="http://www.w3.org/2000/svg" width="22.125" height="21.347" viewBox="0 0 22.125 21.347"><defs><style>.a{fill:#003459;stroke:rgba(0,0,0,0);}</style></defs><g transform="translate(10.382 0.314) rotate(39)"><path class="a" d="M7.384,14.8A7.4,7.4,0,0,1,5.028.4a7.339,7.339,0,0,1,6.5.87A.742.742,0,1,1,10.7,2.5,5.912,5.912,0,1,0,4.775,12.7,5.878,5.878,0,0,0,9.29,13a4.6,4.6,0,0,0,2.656-2.227.742.742,0,0,1,1.307.7A6.121,6.121,0,0,1,9.791,14.4,7.5,7.5,0,0,1,7.384,14.8Z" transform="translate(0 0.552)"/><g transform="translate(8.124 0)"><path class="a" d="M0,3.836,5.576,5.823,4.51,0Z" transform="translate(0 0)"/></g></g></svg>