<svg id="b3774d0d-5cf7-4697-9366-0780a63ef39a" data-name="Layer 1" xmlns="http://www.w3.org/2000/svg" width="41" height="41" viewBox="0 0 41 41">
  <path d="M20.5.5a20,20,0,1,1-20,20A20,20,0,0,1,20.5.5Z" fill="#fff" stroke="#003459"/>
  <g>
    <g>
      <path d="M16.42,30.4a3.82,3.82,0,0,1-3.62-4V14.58a3.82,3.82,0,0,1,3.62-4,3.82,3.82,0,0,1,3.62,4V26.42A3.82,3.82,0,0,1,16.42,30.4Z" fill="#003459"/>
      <path d="M16.42,29.4a2.82,2.82,0,0,0,2.62-3V14.58a2.82,2.82,0,0,0-2.62-3,2.81,2.81,0,0,0-2.62,3V26.42a2.81,2.81,0,0,0,2.62,3m0,2a4.81,4.81,0,0,1-4.62-5V14.58a4.81,4.81,0,0,1,4.62-5,4.81,4.81,0,0,1,4.62,5V26.42A4.81,4.81,0,0,1,16.42,31.4Z" fill="#fff"/>
    </g>
    <g>
      <path d="M24.58,30.4a3.82,3.82,0,0,1-3.62-4V14.58a3.82,3.82,0,0,1,3.62-4,3.82,3.82,0,0,1,3.62,4V26.42A3.82,3.82,0,0,1,24.58,30.4Z" fill="#003459"/>
      <path d="M24.58,29.4a2.81,2.81,0,0,0,2.62-3V14.58a2.81,2.81,0,0,0-2.62-3,2.82,2.82,0,0,0-2.62,3V26.42a2.82,2.82,0,0,0,2.62,3m0,2a4.81,4.81,0,0,1-4.62-5V14.58a4.81,4.81,0,0,1,4.62-5,4.81,4.81,0,0,1,4.62,5V26.42A4.81,4.81,0,0,1,24.58,31.4Z" fill="#fff"/>
    </g>
  </g>
</svg>
