<svg xmlns="http://www.w3.org/2000/svg" width="60" height="21.856" viewBox="0 0 60 21.856"><defs><style>.a{fill:#003459;}</style></defs><path class="a" d="M399.847-109.7a.8.8,0,0,1-.8-.8v-10.226a.8.8,0,0,1,.8-.8.8.8,0,0,1,.8.8V-110.5A.8.8,0,0,1,399.847-109.7Z" transform="translate(-399.05 126.307)"/><path class="a" d="M421.371-109.7a.8.8,0,0,1-.8-.8v-10.226a.8.8,0,0,1,.8-.8.8.8,0,0,1,.8.8V-110.5A.8.8,0,0,1,421.371-109.7Z" transform="translate(-402.52 126.307)"/><path class="a" d="M432-108.065a.8.8,0,0,1-.8-.8v-10.226a.8.8,0,0,1,.8-.8.8.8,0,0,1,.8.8v10.226A.8.8,0,0,1,432-108.065Z" transform="translate(-404.234 126.043)"/><path class="a" d="M437.323-110.611a.8.8,0,0,1-.8-.8v-10.226a.8.8,0,0,1,.8-.8.8.8,0,0,1,.8.8v10.226A.8.8,0,0,1,437.323-110.611Z" transform="translate(-405.091 126.454)"/><path class="a" d="M426.688-111.51a.8.8,0,0,1-.8-.8V-117.9a.8.8,0,0,1,.8-.8.8.8,0,0,1,.8.8v5.591A.8.8,0,0,1,426.688-111.51Z" transform="translate(-403.377 125.852)"/><path class="a" d="M447.956-111.51a.8.8,0,0,1-.8-.8V-117.9a.8.8,0,0,1,.8-.8.8.8,0,0,1,.8.8v5.591A.8.8,0,0,1,447.956-111.51Z" transform="translate(-406.805 125.852)"/><path class="a" d="M469.478-111.748a.8.8,0,0,1-.8-.8v-5.591a.8.8,0,0,1,.8-.8.8.8,0,0,1,.8.8v5.591A.8.8,0,0,1,469.478-111.748Z" transform="translate(-410.275 125.89)"/><path class="a" d="M405.294-107.276a.8.8,0,0,1-.8-.8v-15.638a.8.8,0,0,1,.8-.8.8.8,0,0,1,.8.8v15.638A.8.8,0,0,1,405.294-107.276Z" transform="translate(-399.928 126.789)"/><path class="a" d="M416.054-107.276a.8.8,0,0,1-.8-.8v-15.638a.8.8,0,0,1,.8-.8.8.8,0,0,1,.8.8v15.638A.8.8,0,0,1,416.054-107.276Z" transform="translate(-401.662 126.789)"/><path class="a" d="M453.273-107.276a.8.8,0,0,1-.8-.8v-15.638a.8.8,0,0,1,.8-.8.8.8,0,0,1,.8.8v15.638A.8.8,0,0,1,453.273-107.276Z" transform="translate(-407.662 126.789)"/><path class="a" d="M464.035-107.276a.8.8,0,0,1-.8-.8v-15.638a.8.8,0,0,1,.8-.8.8.8,0,0,1,.8.8v15.638A.8.8,0,0,1,464.035-107.276Z" transform="translate(-409.397 126.789)"/><path class="a" d="M442.639-107.276a.8.8,0,0,1-.8-.8v-15.638a.8.8,0,0,1,.8-.8.8.8,0,0,1,.8.8v15.638A.8.8,0,0,1,442.639-107.276Z" transform="translate(-405.948 126.789)"/><path class="a" d="M410.445-105.3a.8.8,0,0,1-.8-.8V-125.97a.8.8,0,0,1,.8-.8.8.8,0,0,1,.8.8V-106.1A.8.8,0,0,1,410.445-105.3Z" transform="translate(-400.758 127.153)"/><path class="a" d="M458.371-105.757a.8.8,0,0,1-.8-.8V-126.43a.8.8,0,0,1,.8-.8.8.8,0,0,1,.8.8v19.876A.8.8,0,0,1,458.371-105.757Z" transform="translate(-408.484 127.227)"/></svg>