<svg version="1.1" id="Layer_1" xmlns="http://www.w3.org/2000/svg" xmlns:xlink="http://www.w3.org/1999/xlink" x="0px"
  width="122" height="28" y="0px" viewBox="0 0 122 28" style="enable-background:new 0 0 122 28;" xml:space="preserve">
  <style type="text/css">
    .st0 {
      fill: #FFFFFF;
    }

    .st1 {
      fill: none;
      stroke: #6E1E6A;
    }

    .st2 {
      fill: #780A6E;
    }
  </style>
  <g transform="translate(-618 -464.5)">
    <g transform="translate(327)">
      <g transform="translate(291 486)">
        <path class="st0"
          d="M4-21.5h114c2.2,0,4,1.8,4,4v20c0,2.2-1.8,4-4,4H4c-2.2,0-4-1.8-4-4v-20C0-19.7,1.8-21.5,4-21.5z" />
        <path class="st1" d="M4-21h114c1.9,0,3.5,1.6,3.5,3.5v20c0,1.9-1.6,3.5-3.5,3.5H4C2.1,6,0.5,4.4,0.5,2.5v-20
				C0.5-19.4,2.1-21,4-21z" />
      </g>
      <path class="st2" d="M302.7,483.3c0.9,0,1.8-0.3,2.4-0.9v-3.3h-2.6v0.8h1.7v2.1c-0.4,0.3-0.9,0.5-1.4,0.5c-1.7,0-2.6-1.2-2.6-3.2
			c0-2,1-3.2,2.6-3.2c0.6,0,1.3,0.3,1.7,0.7l0.6-0.6c-0.6-0.6-1.4-1-2.3-1c-2.1,0-3.6,1.5-3.6,4.1
			C299.2,481.8,300.7,483.3,302.7,483.3z M309.8,483.3c1.6,0,2.8-0.9,2.8-3.4v-4.6h-1v4.6c0,1.9-0.8,2.5-1.9,2.5s-1.8-0.6-1.8-2.5
			v-4.6h-1v4.6C307,482.4,308.2,483.3,309.8,483.3L309.8,483.3z M314.8,483.2h1v-7.9h-1V483.2z M318,483.2h2c2.4,0,3.7-1.5,3.7-4
			c0-2.5-1.3-3.9-3.7-3.9h-2L318,483.2z M319,482.4v-6.2h0.9c1.8,0,2.8,1.1,2.8,3.1c0,2-0.9,3.2-2.8,3.2H319z M325.3,483.2h4.7v-0.9
			h-3.7v-2.9h3v-0.9h-3v-2.5h3.5v-0.8h-4.5V483.2z M334.1,483.2h2c2.4,0,3.7-1.5,3.7-4c0-2.5-1.3-3.9-3.7-3.9h-2V483.2z
			 M335.1,482.4v-6.2h0.9c1.8,0,2.8,1.1,2.8,3.1c0,2-0.9,3.2-2.8,3.2H335.1z M341.4,478c0.8-0.4,1.3-1.2,1.3-2.1
			c0-0.7-0.3-1.1-0.8-1.1c-0.3,0-0.6,0.3-0.6,0.6c0,0,0,0.1,0,0.1c0,0.3,0.3,0.6,0.6,0.6c0,0,0,0,0,0c0,0,0.1,0,0.1,0
			c0,0.6-0.3,1.2-0.9,1.5L341.4,478z M344.4,483.2h4.7v-0.9h-3.7v-2.9h3v-0.9h-3v-2.5h3.5v-0.8h-4.5V483.2z M346.5,474.8l1.8-1.4
			l-0.6-0.7l-1.7,1.5L346.5,474.8z M352.2,483.2h1.2l2.5-7.9h-1l-1.3,4.2c-0.3,0.9-0.5,1.7-0.8,2.6h0c-0.3-0.9-0.5-1.7-0.8-2.6
			l-1.3-4.2h-1.1L352.2,483.2z M358.1,478.8c0.3-0.9,0.5-1.7,0.8-2.7h0c0.3,0.9,0.5,1.8,0.8,2.7l0.4,1.2h-2.4L358.1,478.8z
			 M355.7,483.2h1l0.8-2.4h2.9l0.7,2.4h1.1l-2.7-7.9h-1.1L355.7,483.2z M363.3,483.2h4.4v-0.9h-3.4v-7h-1L363.3,483.2z M371.6,483.3
			c1.6,0,2.8-0.9,2.8-3.4v-4.6h-1v4.6c0,1.9-0.8,2.5-1.9,2.5s-1.8-0.6-1.8-2.5v-4.6h-1v4.6C368.7,482.4,370,483.3,371.6,483.3z
			 M377.7,478.8c0.3-0.9,0.5-1.7,0.8-2.7h0c0.3,0.9,0.5,1.8,0.8,2.7l0.4,1.2h-2.4L377.7,478.8z M375.3,483.2h1l0.8-2.4h2.9l0.7,2.4
			h1.1l-2.7-7.9h-1.1L375.3,483.2z M383.8,483.2h1v-7h2.4v-0.8h-5.8v0.8h2.4V483.2z M388.6,483.2h1v-7.9h-1V483.2z M394.7,483.3
			c2,0,3.4-1.6,3.4-4.1c0-2.5-1.4-4-3.4-4c-2,0-3.4,1.5-3.4,4C391.3,481.7,392.7,483.3,394.7,483.3z M394.7,482.4
			c-1.4,0-2.3-1.3-2.3-3.2c0-2,0.9-3.2,2.3-3.2s2.3,1.2,2.3,3.2C397,481.2,396.1,482.4,394.7,482.4z M399.7,483.2h0.9v-4.1
			c0-0.8-0.1-1.7-0.1-2.5h0l0.9,1.6l2.9,5h1v-7.9h-0.9v4.1c0,0.8,0.1,1.7,0.1,2.5h0l-0.9-1.6l-2.8-4.9h-1V483.2z" />
    </g>
  </g>
</svg>
