<svg id="e276a4c8-aa83-49e3-8245-0431e287b61c" data-name="Layer 1" xmlns="http://www.w3.org/2000/svg" width="65" height="65" viewBox="0 0 65 65">
  <g>
    <g>
      <circle cx="32.5" cy="32.5" r="32" fill="#fff"/>
      <circle cx="32.5" cy="32.5" r="31.75" fill="none" stroke="#003459" stroke-width="0.5"/>
    </g>
    <path d="M32.5.5a32,32,0,1,1-32,32A32,32,0,0,1,32.5.5Z" fill="#fff" stroke="#003459"/>
    <g>
      <g>
        <path d="M26.52,47a5.6,5.6,0,0,1-5.31-5.86V23.82A5.6,5.6,0,0,1,26.52,18a5.6,5.6,0,0,1,5.31,5.86V41.18A5.6,5.6,0,0,1,26.52,47Z" fill="#003459"/>
        <path d="M26.52,45.55a4.14,4.14,0,0,0,3.84-4.4V23.82a4.14,4.14,0,0,0-3.84-4.4,4.12,4.12,0,0,0-3.84,4.38V41.18a4.12,4.12,0,0,0,3.82,4.4h0m0,2.93a7.06,7.06,0,0,1-6.78-7.32h0V23.82a7.05,7.05,0,0,1,6.76-7.33h0a7.05,7.05,0,0,1,6.77,7.32h0V41.18a7.05,7.05,0,0,1-6.77,7.3Z" fill="#fff"/>
      </g>
      <g>
        <path d="M38.48,47a5.6,5.6,0,0,1-5.31-5.86V23.82A5.6,5.6,0,0,1,38.48,18a5.6,5.6,0,0,1,5.31,5.86V41.18A5.6,5.6,0,0,1,38.48,47Z" fill="#003459"/>
        <path d="M38.48,45.55a4.12,4.12,0,0,0,3.84-4.38V23.82a4.12,4.12,0,0,0-3.82-4.4h0a4.14,4.14,0,0,0-3.84,4.4V41.18a4.14,4.14,0,0,0,3.84,4.4m0,2.93a7.05,7.05,0,0,1-6.77-7.32h0V23.82a7.05,7.05,0,0,1,6.76-7.33h0a7.06,7.06,0,0,1,6.78,7.32h0V41.18a7,7,0,0,1-6.77,7.3Z" fill="#fff"/>
      </g>
    </g>
  </g>
</svg>
