<svg xmlns="http://www.w3.org/2000/svg" width="65" height="65" viewBox="0 0 65 65"><defs><style>.a,.b{fill:#fff;stroke:#003459;}.a{stroke-width:0.5px;}.c{fill:#003459;stroke:#fff;}.d{stroke:none;}.e{fill:none;}</style></defs><g transform="translate(0.5 0.5)"><g class="a"><circle class="d" cx="32" cy="32" r="32"/><circle class="e" cx="32" cy="32" r="31.75"/></g><path class="b" d="M32,0A32,32,0,1,1,0,32,32,32,0,0,1,32,0Z"/><path class="c" d="M431.254-147.364l-2.805-1.618a1.43,1.43,0,0,0-1.953.523,1.422,1.422,0,0,0-.191.712v28.327a1.425,1.425,0,0,0,1.422,1.429,1.415,1.415,0,0,0,.722-.194l24.53-14.162a1.428,1.428,0,0,0,.714-1.237,1.429,1.429,0,0,0-.714-1.237l-11.318-6.534Z" transform="translate(-404.627 166.321)"/></g></svg>