<svg id="be61bbbd-90a9-4ca6-84b8-483aa8bba9de" data-name="Layer 1" xmlns="http://www.w3.org/2000/svg" width="122" height="30" viewBox="0 0 122 30">
  <g>
    <g>
      <path d="M4,20.5H118a4,4,0,0,1,4,4v22a4,4,0,0,1-4,4H4a4,4,0,0,1-4-4v-22A4,4,0,0,1,4,20.5Z" transform="translate(0 -20.5)" fill="#fff"/>
      <path d="M4,21H118a3.54,3.54,0,0,1,3.5,3.5v22A3.54,3.54,0,0,1,118,50H4A3.54,3.54,0,0,1,.5,46.5v-22A3.54,3.54,0,0,1,4,21Z" transform="translate(0 -20.5)" fill="none" stroke="#6e1e6a"/>
    </g>
    <g style="isolation: isolate">
      <path d="M14.67,39.31l.7-.81a3.62,3.62,0,0,0,2.53,1.15c1.21,0,1.92-.61,1.92-1.5s-.66-1.24-1.52-1.63L17,36a2.46,2.46,0,0,1,1-4.81,3.84,3.84,0,0,1,2.72,1.14l-.63.75A2.93,2.93,0,0,0,18,32.17c-1,0-1.71.51-1.71,1.34s.8,1.22,1.53,1.53l1.3.56A2.55,2.55,0,0,1,21,38.05c0,1.46-1.19,2.62-3.12,2.62A4.44,4.44,0,0,1,14.67,39.31Z" transform="translate(0 -20.5)" fill="#780a6e"/>
      <path d="M22.28,35.91c0-3,1.74-4.77,4.08-4.77a3.32,3.32,0,0,1,2.52,1.14l-.63.75a2.53,2.53,0,0,0-1.88-.86c-1.73,0-2.88,1.42-2.88,3.71s1.1,3.77,2.84,3.77a2.8,2.8,0,0,0,2.13-1l.65.73a3.57,3.57,0,0,1-2.82,1.33C24,40.67,22.28,38.9,22.28,35.91Z" transform="translate(0 -20.5)" fill="#780a6e"/>
      <path d="M29.87,35.86c0-2.94,1.61-4.72,3.92-4.72s3.94,1.8,3.94,4.72-1.63,4.81-3.94,4.81S29.87,38.82,29.87,35.86Zm6.64,0c0-2.28-1.08-3.69-2.72-3.69s-2.71,1.41-2.71,3.69,1.07,3.79,2.71,3.79S36.51,38.16,36.51,35.86Z" transform="translate(0 -20.5)" fill="#780a6e"/>
      <path d="M39.7,31.31h2.87c1.88,0,3.22.67,3.22,2.58a2.5,2.5,0,0,1-2.07,2.6l2.34,4H44.74l-2.21-3.88H40.86V40.5H39.7Zm2.7,4.36c1.43,0,2.23-.59,2.23-1.78s-.8-1.64-2.23-1.64H40.86v3.42Z" transform="translate(0 -20.5)" fill="#780a6e"/>
      <path d="M47.67,31.31h1.16V40.5H47.67Z" transform="translate(0 -20.5)" fill="#780a6e"/>
      <path d="M51.35,31.31h1.2l3.32,5.77,1,1.91h.05c-.05-.93-.14-2-.14-2.93V31.31h1.11V40.5H56.68l-3.33-5.79-1-1.89H52.3c.07.93.15,1.91.15,2.88v4.8h-1.1Z" transform="translate(0 -20.5)" fill="#780a6e"/>
      <path d="M59.87,35.91c0-3,1.78-4.77,4.22-4.77a3.56,3.56,0,0,1,2.65,1.14l-.65.75a2.61,2.61,0,0,0-2-.86c-1.85,0-3,1.42-3,3.71s1.09,3.77,3,3.77a2.48,2.48,0,0,0,1.65-.55V36.7H63.84v-1h3V39.6A3.9,3.9,0,0,1,64,40.67C61.6,40.67,59.87,38.9,59.87,35.91Z" transform="translate(0 -20.5)" fill="#780a6e"/>
      <path d="M71.31,35.91c0-3,1.78-4.77,4.22-4.77a3.52,3.52,0,0,1,2.64,1.14l-.64.75a2.61,2.61,0,0,0-2-.86c-1.84,0-3,1.42-3,3.71s1.1,3.77,3.06,3.77a2.48,2.48,0,0,0,1.65-.55V36.7h-2v-1h3V39.6a3.9,3.9,0,0,1-2.83,1.07C73,40.67,71.31,38.9,71.31,35.91Z" transform="translate(0 -20.5)" fill="#780a6e"/>
      <path d="M80.44,36.7V31.31H81.6v5.42c0,2.22.94,2.92,2.14,2.92s2.18-.7,2.18-2.92V31.31H87V36.7c0,3-1.42,4-3.3,4S80.44,39.66,80.44,36.7Z" transform="translate(0 -20.5)" fill="#780a6e"/>
      <path d="M89.51,31.31h1.16V40.5H89.51Z" transform="translate(0 -20.5)" fill="#780a6e"/>
      <path d="M93.19,31.31h2.3c2.83,0,4.34,1.64,4.34,4.55s-1.51,4.64-4.29,4.64H93.19Zm2.22,8.24c2.14,0,3.22-1.36,3.22-3.69s-1.08-3.6-3.22-3.6H94.35v7.29Z" transform="translate(0 -20.5)" fill="#780a6e"/>
      <path d="M101.8,31.31h5.3v1H103v2.89h3.49v1H103v3.34h4.28v1H101.8Z" transform="translate(0 -20.5)" fill="#780a6e"/>
    </g>
  </g>
</svg>
